ISO-10303-21;
HEADER;
FILE_DESCRIPTION(('Creo Elements/Direct Modeling STEP Export'),'2;1');
FILE_NAME('C:/caxtmp/101427274_00.stp','2020-10-08T11:31:34',(''),(''),
'Creo Elements/Direct Modeling STEP processor for AP214 (Solid Model)',
'Creo Elements/Direct Modeling 20.1  10-Mar-2018 (C) Parametric Technolo
gy GmbH','');
FILE_SCHEMA(('AUTOMOTIVE_DESIGN { 1 0 10303 214 1 1 1 1 }'));
ENDSEC;
DATA;
#10=CARTESIAN_POINT('',(0.999999999999996,1.8,12.5682178936724));
#20=DIRECTION('',(1.,4.89858719658941E-16,0.));
#30=DIRECTION('',(-1.61501637232882E-16,0.329690236697891,
0.944089163069934));
#40=AXIS2_PLACEMENT_3D('',#10,#20,#30);
#50=CYLINDRICAL_SURFACE('',#40,0.2);
#60=CARTESIAN_POINT('',(0.999999999999996,2.,12.5682178936724));
#70=DIRECTION('',(-1.,-4.79414487906318E-16,0.));
#80=VECTOR('',#70,10.);
#90=LINE('',#60,#80);
#100=CARTESIAN_POINT('',(1.5,2.,12.5682178936724));
#110=VERTEX_POINT('',#100);
#120=CARTESIAN_POINT('',(0.999999999999997,2.,12.5682178936724));
#130=VERTEX_POINT('',#120);
#140=EDGE_CURVE('',#110,#130,#90,.T.);
#150=ORIENTED_EDGE('',*,*,#140,.T.);
#160=CARTESIAN_POINT('',(1.5,1.8,12.5682178936724));
#170=DIRECTION('',(1.,4.44089209850063E-16,-4.05035281641455E-18));
#180=DIRECTION('',(-1.4258798250986E-16,0.329690236697891,
0.944089163069934));
#190=AXIS2_PLACEMENT_3D('',#160,#170,#180);
#200=CIRCLE('',#190,0.2);
#210=CARTESIAN_POINT('',(1.5,1.64347826086956,12.6927206855269));
#220=VERTEX_POINT('',#210);
#230=EDGE_CURVE('',#110,#220,#200,.T.);
#240=ORIENTED_EDGE('',*,*,#230,.F.);
#250=CARTESIAN_POINT('',(0.999999999999996,1.64347826086957,
12.6927206855269));
#260=DIRECTION('',(1.,4.89858719658941E-16,0.));
#270=VECTOR('',#260,10.);
#280=LINE('',#250,#270);
#290=CARTESIAN_POINT('',(0.999999999999997,1.64347826086956,
12.6927206855269));
#300=VERTEX_POINT('',#290);
#310=EDGE_CURVE('',#300,#220,#280,.T.);
#320=ORIENTED_EDGE('',*,*,#310,.T.);
#330=CARTESIAN_POINT('',(0.999999999999997,1.8,12.5682178936724));
#340=DIRECTION('',(1.,4.79414487906318E-16,-1.65211759616839E-16));
#350=DIRECTION('',(-2.08364412825955E-18,0.329690236697891,
0.944089163069934));
#360=AXIS2_PLACEMENT_3D('',#330,#340,#350);
#370=CIRCLE('',#360,0.2);
#380=EDGE_CURVE('',#130,#300,#370,.T.);
#390=ORIENTED_EDGE('',*,*,#380,.T.);
#400=EDGE_LOOP('',(#390,#320,#240,#150));
#410=FACE_OUTER_BOUND('',#400,.T.);
#420=ADVANCED_FACE('',(#410),#50,.T.);
#430=CARTESIAN_POINT('',(0.999999999999996,2.,6.7));
#440=DIRECTION('',(1.,4.79414487906318E-16,-1.65211759616839E-16));
#450=DIRECTION('',(1.65211759616839E-16,7.92049111328084E-32,1.));
#460=AXIS2_PLACEMENT_3D('',#430,#440,#450);
#470=PLANE('',#460);
#480=CARTESIAN_POINT('',(0.999999999999997,5.55111512312578E-16,14.));
#490=DIRECTION('',(1.,4.79414487906318E-16,-1.65211759616839E-16));
#500=DIRECTION('',(-1.65211759616839E-16,-7.72208104879936E-32,-1.));
#510=AXIS2_PLACEMENT_3D('',#480,#490,#500);
#520=CIRCLE('',#510,2.1);
#530=CARTESIAN_POINT('',(0.999999999999998,-1.64347826086956,
12.6927206855269));
#540=VERTEX_POINT('',#530);
#550=EDGE_CURVE('',#540,#300,#520,.T.);
#560=ORIENTED_EDGE('',*,*,#550,.T.);
#570=CARTESIAN_POINT('',(0.999999999999998,-1.8,12.5682178936724));
#580=DIRECTION('',(1.,4.79414487906318E-16,-1.65211759616839E-16));
#590=DIRECTION('',(3.14032907860205E-16,-0.329690236697891,
0.944089163069934));
#600=AXIS2_PLACEMENT_3D('',#570,#580,#590);
#610=CIRCLE('',#600,0.2);
#620=CARTESIAN_POINT('',(1.,-2.,12.5682178936724));
#630=VERTEX_POINT('',#620);
#640=EDGE_CURVE('',#540,#630,#610,.T.);
#650=ORIENTED_EDGE('',*,*,#640,.F.);
#660=CARTESIAN_POINT('',(0.999999999999999,-2.,3.35));
#670=DIRECTION('',(-1.65211759616839E-16,-7.92049111328084E-32,-1.));
#680=VECTOR('',#670,10.);
#690=LINE('',#660,#680);
#700=CARTESIAN_POINT('',(0.999999999999999,-2.,7.05424868893541));
#710=VERTEX_POINT('',#700);
#720=EDGE_CURVE('',#630,#710,#690,.T.);
#730=ORIENTED_EDGE('',*,*,#720,.F.);
#740=CARTESIAN_POINT('',(0.999999999999996,2.,7.05424868893541));
#750=DIRECTION('',(-4.79414487906318E-16,1.,-1.725509905697E-33));
#760=VECTOR('',#750,10.);
#770=LINE('',#740,#760);
#780=CARTESIAN_POINT('',(0.999999999999996,2.,7.05424868893541));
#790=VERTEX_POINT('',#780);
#800=EDGE_CURVE('',#710,#790,#770,.T.);
#810=ORIENTED_EDGE('',*,*,#800,.F.);
#820=CARTESIAN_POINT('',(0.999999999999996,2.,3.35));
#830=DIRECTION('',(1.65211759616839E-16,7.92049111328084E-32,1.));
#840=VECTOR('',#830,10.);
#850=LINE('',#820,#840);
#860=EDGE_CURVE('',#790,#130,#850,.T.);
#870=ORIENTED_EDGE('',*,*,#860,.F.);
#880=ORIENTED_EDGE('',*,*,#380,.F.);
#890=EDGE_LOOP('',(#880,#870,#810,#730,#650,#560));
#900=FACE_OUTER_BOUND('',#890,.T.);
#910=ADVANCED_FACE('',(#900),#470,.F.);
#920=CARTESIAN_POINT('',(-1.34711147906209E-15,2.,0.));
#930=DIRECTION('',(-4.79414487906318E-16,1.,0.));
#940=DIRECTION('',(0.,0.,1.));
#950=AXIS2_PLACEMENT_3D('',#920,#930,#940);
#960=PLANE('',#950);
#970=ORIENTED_EDGE('',*,*,#860,.T.);
#980=CARTESIAN_POINT('',(-2.77555756156289E-15,2.,7.05424868893541));
#990=DIRECTION('',(-4.79414487906318E-16,1.,0.));
#1000=DIRECTION('',(0.948683298050514,4.54812517520164E-16,
-0.316227766016837));
#1010=AXIS2_PLACEMENT_3D('',#980,#990,#1000);
#1020=CIRCLE('',#1010,1.);
#1030=CARTESIAN_POINT('',(0.799999999999997,2.,6.45424868893541));
#1040=VERTEX_POINT('',#1030);
#1050=EDGE_CURVE('',#790,#1040,#1020,.T.);
#1060=ORIENTED_EDGE('',*,*,#1050,.F.);
#1070=CARTESIAN_POINT('',(4.,2.,4.05424868893541));
#1080=DIRECTION('',(4.79414487906318E-16,-1.,0.));
#1090=DIRECTION('',(-0.750000000000001,-3.59560865929739E-16,
0.661437827766147));
#1100=AXIS2_PLACEMENT_3D('',#1070,#1080,#1090);
#1110=CIRCLE('',#1100,4.);
#1120=CARTESIAN_POINT('',(-1.34711147906209E-15,2.,4.05424868893541));
#1130=VERTEX_POINT('',#1120);
#1140=EDGE_CURVE('',#1040,#1130,#1110,.T.);
#1150=ORIENTED_EDGE('',*,*,#1140,.F.);
#1160=CARTESIAN_POINT('',(-1.34711147906209E-15,2.,0.));
#1170=DIRECTION('',(0.,0.,1.));
#1180=VECTOR('',#1170,10.);
#1190=LINE('',#1160,#1180);
#1200=CARTESIAN_POINT('',(-1.34711147906209E-15,2.,4.));
#1210=VERTEX_POINT('',#1200);
#1220=EDGE_CURVE('',#1210,#1130,#1190,.T.);
#1230=ORIENTED_EDGE('',*,*,#1220,.T.);
#1240=CARTESIAN_POINT('',(4.,2.,4.));
#1250=DIRECTION('',(4.79414487906318E-16,-1.,0.));
#1260=DIRECTION('',(-0.707106781186548,-3.38997235397634E-16,
-0.707106781186548));
#1270=AXIS2_PLACEMENT_3D('',#1240,#1250,#1260);
#1280=CIRCLE('',#1270,4.);
#1290=CARTESIAN_POINT('',(8.,2.,4.));
#1300=VERTEX_POINT('',#1290);
#1310=EDGE_CURVE('',#1210,#1300,#1280,.T.);
#1320=ORIENTED_EDGE('',*,*,#1310,.F.);
#1330=CARTESIAN_POINT('',(8.,2.,2.7885883482369E-16));
#1340=DIRECTION('',(2.08492586784067E-16,9.9954366725347E-32,-1.));
#1350=VECTOR('',#1340,10.);
#1360=LINE('',#1330,#1350);
#1370=CARTESIAN_POINT('',(8.,2.,20.3));
#1380=VERTEX_POINT('',#1370);
#1390=EDGE_CURVE('',#1380,#1300,#1360,.T.);
#1400=ORIENTED_EDGE('',*,*,#1390,.T.);
#1410=CARTESIAN_POINT('',(9.,2.,20.3));
#1420=DIRECTION('',(-4.79414487906318E-16,1.,0.));
#1430=DIRECTION('',(-0.707106781186545,-3.38997235397632E-16,
0.70710678118655));
#1440=AXIS2_PLACEMENT_3D('',#1410,#1420,#1430);
#1450=CIRCLE('',#1440,1.);
#1460=CARTESIAN_POINT('',(8.99999999999999,2.,21.3));
#1470=VERTEX_POINT('',#1460);
#1480=EDGE_CURVE('',#1380,#1470,#1450,.T.);
#1490=ORIENTED_EDGE('',*,*,#1480,.F.);
#1500=CARTESIAN_POINT('',(4.,2.,21.3));
#1510=DIRECTION('',(-1.,-4.79414487906318E-16,0.));
#1520=VECTOR('',#1510,10.);
#1530=LINE('',#1500,#1520);
#1540=CARTESIAN_POINT('',(10.5,2.,21.3));
#1550=VERTEX_POINT('',#1540);
#1560=EDGE_CURVE('',#1550,#1470,#1530,.T.);
#1570=ORIENTED_EDGE('',*,*,#1560,.T.);
#1580=CARTESIAN_POINT('',(10.5,2.00000000000001,21.8));
#1590=DIRECTION('',(4.79414487906318E-16,-1.,0.));
#1600=DIRECTION('',(0.707106781186551,3.38997235397635E-16,
-0.707106781186544));
#1610=AXIS2_PLACEMENT_3D('',#1580,#1590,#1600);
#1620=CIRCLE('',#1610,0.5);
#1630=CARTESIAN_POINT('',(11.,2.,21.8));
#1640=VERTEX_POINT('',#1630);
#1650=EDGE_CURVE('',#1550,#1640,#1620,.T.);
#1660=ORIENTED_EDGE('',*,*,#1650,.F.);
#1670=CARTESIAN_POINT('',(11.,2.,0.));
#1680=DIRECTION('',(0.,0.,1.));
#1690=VECTOR('',#1680,10.);
#1700=LINE('',#1670,#1690);
#1710=CARTESIAN_POINT('',(11.,2.,21.9341737512063));
#1720=VERTEX_POINT('',#1710);
#1730=EDGE_CURVE('',#1640,#1720,#1700,.T.);
#1740=ORIENTED_EDGE('',*,*,#1730,.F.);
#1750=CARTESIAN_POINT('',(10.5,2.00000000000001,21.9341737512063));
#1760=DIRECTION('',(4.79414487906318E-16,-1.,0.));
#1770=DIRECTION('',(0.991444861373811,4.75313030502876E-16,
0.130526192220049));
#1780=AXIS2_PLACEMENT_3D('',#1750,#1760,#1770);
#1790=CIRCLE('',#1780,0.5);
#1800=CARTESIAN_POINT('',(10.9829629131445,2.,22.0635832737576));
#1810=VERTEX_POINT('',#1800);
#1820=EDGE_CURVE('',#1720,#1810,#1790,.T.);
#1830=ORIENTED_EDGE('',*,*,#1820,.F.);
#1840=CARTESIAN_POINT('',(13.2810889132455,2.00000000000001,
13.4868602791856));
#1850=DIRECTION('',(-0.258819045102519,-1.24081599968226E-16,
0.965925826289069));
#1860=VECTOR('',#1850,10.);
#1870=LINE('',#1840,#1860);
#1880=CARTESIAN_POINT('',(10.6973756305084,2.,23.1294095225513));
#1890=VERTEX_POINT('',#1880);
#1900=EDGE_CURVE('',#1810,#1890,#1870,.T.);
#1910=ORIENTED_EDGE('',*,*,#1900,.F.);
#1920=CARTESIAN_POINT('',(10.2144127173638,2.00000000000001,23.));
#1930=DIRECTION('',(4.79414487906318E-16,-1.,0.));
#1940=DIRECTION('',(0.608761429008724,2.91849048745336E-16,
0.793353340291233));
#1950=AXIS2_PLACEMENT_3D('',#1920,#1930,#1940);
#1960=CIRCLE('',#1950,0.5);
#1970=CARTESIAN_POINT('',(10.2144127173638,2.,23.5));
#1980=VERTEX_POINT('',#1970);
#1990=EDGE_CURVE('',#1890,#1980,#1960,.T.);
#2000=ORIENTED_EDGE('',*,*,#1990,.F.);
#2010=CARTESIAN_POINT('',(11.,2.,23.5));
#2020=DIRECTION('',(1.,4.79414487906318E-16,0.));
#2030=VECTOR('',#2020,10.);
#2040=LINE('',#2010,#2030);
#2050=CARTESIAN_POINT('',(7.4142135623731,2.,23.5));
#2060=VERTEX_POINT('',#2050);
#2070=EDGE_CURVE('',#2060,#1980,#2040,.T.);
#2080=ORIENTED_EDGE('',*,*,#2070,.T.);
#2090=CARTESIAN_POINT('',(7.4142135623731,2.,22.5));
#2100=DIRECTION('',(4.79414487906318E-16,-1.,0.));
#2110=DIRECTION('',(-0.382683432365091,-1.83463981757542E-16,
0.923879532511286));
#2120=AXIS2_PLACEMENT_3D('',#2090,#2100,#2110);
#2130=CIRCLE('',#2120,1.);
#2140=CARTESIAN_POINT('',(6.70710678118655,2.,23.2071067811865));
#2150=VERTEX_POINT('',#2140);
#2160=EDGE_CURVE('',#2060,#2150,#2130,.T.);
#2170=ORIENTED_EDGE('',*,*,#2160,.F.);
#2180=CARTESIAN_POINT('',(-2.125,2.,14.375));
#2190=DIRECTION('',(-0.707106781186548,-3.38997235397633E-16,
-0.707106781186548));
#2200=VECTOR('',#2190,10.);
#2210=LINE('',#2180,#2200);
#2220=CARTESIAN_POINT('',(1.29289321881345,2.,17.7928932188135));
#2230=VERTEX_POINT('',#2220);
#2240=EDGE_CURVE('',#2150,#2230,#2210,.T.);
#2250=ORIENTED_EDGE('',*,*,#2240,.F.);
#2260=CARTESIAN_POINT('',(2.,2.,17.0857864376269));
#2270=DIRECTION('',(4.79414487906318E-16,-1.,0.));
#2280=DIRECTION('',(-0.923879532511287,-4.42921232966027E-16,
0.382683432365089));
#2290=AXIS2_PLACEMENT_3D('',#2260,#2270,#2280);
#2300=CIRCLE('',#2290,1.);
#2310=CARTESIAN_POINT('',(0.999999999999998,2.,17.0857864376269));
#2320=VERTEX_POINT('',#2310);
#2330=EDGE_CURVE('',#2230,#2320,#2300,.T.);
#2340=ORIENTED_EDGE('',*,*,#2330,.F.);
#2350=CARTESIAN_POINT('',(0.999999999999996,2.,3.35));
#2360=DIRECTION('',(1.65211759616839E-16,7.92049111328084E-32,1.));
#2370=VECTOR('',#2360,10.);
#2380=LINE('',#2350,#2370);
#2390=CARTESIAN_POINT('',(0.999999999999998,2.,15.4317821063276));
#2400=VERTEX_POINT('',#2390);
#2410=EDGE_CURVE('',#2400,#2320,#2380,.T.);
#2420=ORIENTED_EDGE('',*,*,#2410,.T.);
#2430=CARTESIAN_POINT('',(0.999999999999996,2.,15.4317821063276));
#2440=DIRECTION('',(1.,4.79414487906318E-16,0.));
#2450=VECTOR('',#2440,10.);
#2460=LINE('',#2430,#2450);
#2470=CARTESIAN_POINT('',(1.5,2.,15.4317821063276));
#2480=VERTEX_POINT('',#2470);
#2490=EDGE_CURVE('',#2400,#2480,#2460,.T.);
#2500=ORIENTED_EDGE('',*,*,#2490,.F.);
#2510=CARTESIAN_POINT('',(1.5,2.,7.));
#2520=DIRECTION('',(4.05035281641455E-18,1.94179782132129E-33,1.));
#2530=VECTOR('',#2520,10.);
#2540=LINE('',#2510,#2530);
#2550=EDGE_CURVE('',#110,#2480,#2540,.T.);
#2560=ORIENTED_EDGE('',*,*,#2550,.T.);
#2570=ORIENTED_EDGE('',*,*,#140,.F.);
#2580=EDGE_LOOP('',(#2570,#2560,#2500,#2420,#2340,#2250,#2170,#2080,
#2000,#1910,#1830,#1740,#1660,#1570,#1490,#1400,#1320,#1230,#1150,#1060,
#970));
#2590=FACE_OUTER_BOUND('',#2580,.T.);
#2600=CARTESIAN_POINT('',(4.,2.,4.));
#2610=DIRECTION('',(4.79414487906318E-16,-1.,0.));
#2620=DIRECTION('',(1.,4.79414487906318E-16,0.));
#2630=AXIS2_PLACEMENT_3D('',#2600,#2610,#2620);
#2640=CIRCLE('',#2630,1.5);
#2650=CARTESIAN_POINT('',(2.5,2.,4.));
#2660=VERTEX_POINT('',#2650);
#2670=CARTESIAN_POINT('',(5.5,2.,4.));
#2680=VERTEX_POINT('',#2670);
#2690=EDGE_CURVE('',#2660,#2680,#2640,.T.);
#2700=ORIENTED_EDGE('',*,*,#2690,.T.);
#2710=EDGE_CURVE('',#2680,#2660,#2640,.T.);
#2720=ORIENTED_EDGE('',*,*,#2710,.T.);
#2730=EDGE_LOOP('',(#2720,#2700));
#2740=FACE_BOUND('',#2730,.T.);
#2750=ADVANCED_FACE('',(#2590,#2740),#960,.T.);
#2760=CARTESIAN_POINT('',(0.999999999999996,1.8,15.4317821063276));
#2770=DIRECTION('',(-1.,-4.89858719658941E-16,0.));
#2780=DIRECTION('',(-1.61501637232882E-16,0.329690236697891,
-0.944089163069934));
#2790=AXIS2_PLACEMENT_3D('',#2760,#2770,#2780);
#2800=CYLINDRICAL_SURFACE('',#2790,0.2);
#2810=CARTESIAN_POINT('',(0.999999999999996,1.64347826086957,
15.3072793144731));
#2820=DIRECTION('',(-1.,-4.89858719658941E-16,0.));
#2830=VECTOR('',#2820,10.);
#2840=LINE('',#2810,#2830);
#2850=CARTESIAN_POINT('',(1.5,1.64347826086956,15.3072793144731));
#2860=VERTEX_POINT('',#2850);
#2870=CARTESIAN_POINT('',(0.999999999999997,1.64347826086956,
15.3072793144731));
#2880=VERTEX_POINT('',#2870);
#2890=EDGE_CURVE('',#2860,#2880,#2840,.T.);
#2900=ORIENTED_EDGE('',*,*,#2890,.T.);
#2910=CARTESIAN_POINT('',(1.5,1.8,15.4317821063276));
#2920=DIRECTION('',(1.,4.44089209850063E-16,-4.05035281641455E-18));
#2930=DIRECTION('',(-1.50235770911033E-16,0.329690236697891,
-0.944089163069934));
#2940=AXIS2_PLACEMENT_3D('',#2910,#2920,#2930);
#2950=CIRCLE('',#2940,0.2);
#2960=EDGE_CURVE('',#2860,#2480,#2950,.T.);
#2970=ORIENTED_EDGE('',*,*,#2960,.F.);
#2980=ORIENTED_EDGE('',*,*,#2490,.T.);
#2990=CARTESIAN_POINT('',(0.999999999999997,1.8,15.4317821063276));
#3000=DIRECTION('',(1.,4.79414487906318E-16,-1.65211759616839E-16));
#3010=DIRECTION('',(-3.14032907860205E-16,0.329690236697891,
-0.944089163069934));
#3020=AXIS2_PLACEMENT_3D('',#2990,#3000,#3010);
#3030=CIRCLE('',#3020,0.2);
#3040=EDGE_CURVE('',#2880,#2400,#3030,.T.);
#3050=ORIENTED_EDGE('',*,*,#3040,.T.);
#3060=EDGE_LOOP('',(#3050,#2980,#2970,#2900));
#3070=FACE_OUTER_BOUND('',#3060,.T.);
#3080=ADVANCED_FACE('',(#3070),#2800,.T.);
#3090=CARTESIAN_POINT('',(0.999999999999996,2.,6.7));
#3100=DIRECTION('',(1.,4.79414487906318E-16,-1.65211759616839E-16));
#3110=DIRECTION('',(1.65211759616839E-16,7.92049111328084E-32,1.));
#3120=AXIS2_PLACEMENT_3D('',#3090,#3100,#3110);
#3130=PLANE('',#3120);
#3140=ORIENTED_EDGE('',*,*,#2410,.F.);
#3150=CARTESIAN_POINT('',(0.999999999999998,1.5,17.0857864376269));
#3160=DIRECTION('',(4.79414487906318E-16,-1.,0.));
#3170=VECTOR('',#3160,10.);
#3180=LINE('',#3150,#3170);
#3190=CARTESIAN_POINT('',(1.,-2.,17.0857864376269));
#3200=VERTEX_POINT('',#3190);
#3210=EDGE_CURVE('',#2320,#3200,#3180,.T.);
#3220=ORIENTED_EDGE('',*,*,#3210,.F.);
#3230=CARTESIAN_POINT('',(0.999999999999999,-2.,3.35));
#3240=DIRECTION('',(-1.65211759616839E-16,-7.92049111328084E-32,-1.));
#3250=VECTOR('',#3240,10.);
#3260=LINE('',#3230,#3250);
#3270=CARTESIAN_POINT('',(1.,-2.,15.4317821063276));
#3280=VERTEX_POINT('',#3270);
#3290=EDGE_CURVE('',#3200,#3280,#3260,.T.);
#3300=ORIENTED_EDGE('',*,*,#3290,.F.);
#3310=CARTESIAN_POINT('',(0.999999999999998,-1.8,15.4317821063276));
#3320=DIRECTION('',(1.,4.79414487906318E-16,-1.65211759616839E-16));
#3330=DIRECTION('',(2.08364412825955E-18,-0.329690236697891,
-0.944089163069934));
#3340=AXIS2_PLACEMENT_3D('',#3310,#3320,#3330);
#3350=CIRCLE('',#3340,0.2);
#3360=CARTESIAN_POINT('',(0.999999999999998,-1.64347826086956,
15.3072793144731));
#3370=VERTEX_POINT('',#3360);
#3380=EDGE_CURVE('',#3280,#3370,#3350,.T.);
#3390=ORIENTED_EDGE('',*,*,#3380,.F.);
#3400=CARTESIAN_POINT('',(0.999999999999997,5.55111512312578E-16,14.));
#3410=DIRECTION('',(1.,4.79414487906318E-16,-1.65211759616839E-16));
#3420=DIRECTION('',(-1.65211759616839E-16,-7.72208104879936E-32,-1.));
#3430=AXIS2_PLACEMENT_3D('',#3400,#3410,#3420);
#3440=CIRCLE('',#3430,2.1);
#3450=EDGE_CURVE('',#2880,#3370,#3440,.T.);
#3460=ORIENTED_EDGE('',*,*,#3450,.T.);
#3470=ORIENTED_EDGE('',*,*,#3040,.F.);
#3480=EDGE_LOOP('',(#3470,#3460,#3390,#3300,#3220,#3140));
#3490=FACE_OUTER_BOUND('',#3480,.T.);
#3500=ADVANCED_FACE('',(#3490),#3130,.F.);
#3510=CARTESIAN_POINT('',(0.999999999999998,-1.8,15.4317821063276));
#3520=DIRECTION('',(1.,4.89858719658941E-16,0.));
#3530=DIRECTION('',(1.61501637232882E-16,-0.329690236697891,
-0.944089163069934));
#3540=AXIS2_PLACEMENT_3D('',#3510,#3520,#3530);
#3550=CYLINDRICAL_SURFACE('',#3540,0.2);
#3560=CARTESIAN_POINT('',(0.999999999999998,-2.,15.4317821063276));
#3570=DIRECTION('',(-1.,-4.79414487906318E-16,0.));
#3580=VECTOR('',#3570,10.);
#3590=LINE('',#3560,#3580);
#3600=CARTESIAN_POINT('',(1.5,-2.,15.4317821063276));
#3610=VERTEX_POINT('',#3600);
#3620=EDGE_CURVE('',#3610,#3280,#3590,.T.);
#3630=ORIENTED_EDGE('',*,*,#3620,.T.);
#3640=CARTESIAN_POINT('',(1.5,-1.8,15.4317821063276));
#3650=DIRECTION('',(1.,4.44089209850063E-16,-4.05035281641455E-18));
#3660=DIRECTION('',(1.4258798250986E-16,-0.329690236697891,
-0.944089163069934));
#3670=AXIS2_PLACEMENT_3D('',#3640,#3650,#3660);
#3680=CIRCLE('',#3670,0.2);
#3690=CARTESIAN_POINT('',(1.5,-1.64347826086956,15.3072793144731));
#3700=VERTEX_POINT('',#3690);
#3710=EDGE_CURVE('',#3610,#3700,#3680,.T.);
#3720=ORIENTED_EDGE('',*,*,#3710,.F.);
#3730=CARTESIAN_POINT('',(0.999999999999998,-1.64347826086956,
15.3072793144731));
#3740=DIRECTION('',(1.,4.89858719658941E-16,0.));
#3750=VECTOR('',#3740,10.);
#3760=LINE('',#3730,#3750);
#3770=EDGE_CURVE('',#3370,#3700,#3760,.T.);
#3780=ORIENTED_EDGE('',*,*,#3770,.T.);
#3790=ORIENTED_EDGE('',*,*,#3380,.T.);
#3800=EDGE_LOOP('',(#3790,#3780,#3720,#3630));
#3810=FACE_OUTER_BOUND('',#3800,.T.);
#3820=ADVANCED_FACE('',(#3810),#3550,.T.);
#3830=CARTESIAN_POINT('',(11.,-1.99999999999999,0.));
#3840=DIRECTION('',(4.79414487906318E-16,-1.,0.));
#3850=DIRECTION('',(0.,0.,-1.));
#3860=AXIS2_PLACEMENT_3D('',#3830,#3840,#3850);
#3870=PLANE('',#3860);
#3880=ORIENTED_EDGE('',*,*,#3290,.T.);
#3890=CARTESIAN_POINT('',(2.,-2.,17.0857864376269));
#3900=DIRECTION('',(-4.79414487906318E-16,1.,0.));
#3910=DIRECTION('',(-0.923879532511287,-4.42921232966027E-16,
0.382683432365089));
#3920=AXIS2_PLACEMENT_3D('',#3890,#3900,#3910);
#3930=CIRCLE('',#3920,1.);
#3940=CARTESIAN_POINT('',(1.29289321881345,-2.,17.7928932188135));
#3950=VERTEX_POINT('',#3940);
#3960=EDGE_CURVE('',#3200,#3950,#3930,.T.);
#3970=ORIENTED_EDGE('',*,*,#3960,.F.);
#3980=CARTESIAN_POINT('',(0.625,-2.,17.125));
#3990=DIRECTION('',(0.707106781186548,3.38997235397633E-16,
0.707106781186548));
#4000=VECTOR('',#3990,10.);
#4010=LINE('',#3980,#4000);
#4020=CARTESIAN_POINT('',(6.70710678118655,-2.,23.2071067811865));
#4030=VERTEX_POINT('',#4020);
#4040=EDGE_CURVE('',#3950,#4030,#4010,.T.);
#4050=ORIENTED_EDGE('',*,*,#4040,.F.);
#4060=CARTESIAN_POINT('',(7.4142135623731,-2.,22.5));
#4070=DIRECTION('',(-4.79414487906318E-16,1.,0.));
#4080=DIRECTION('',(-0.382683432365091,-1.83463981757542E-16,
0.923879532511286));
#4090=AXIS2_PLACEMENT_3D('',#4060,#4070,#4080);
#4100=CIRCLE('',#4090,1.);
#4110=CARTESIAN_POINT('',(7.4142135623731,-2.,23.5));
#4120=VERTEX_POINT('',#4110);
#4130=EDGE_CURVE('',#4030,#4120,#4100,.T.);
#4140=ORIENTED_EDGE('',*,*,#4130,.F.);
#4150=CARTESIAN_POINT('',(6.12323399573677E-16,-2.,23.5));
#4160=DIRECTION('',(-1.,-4.79414487906318E-16,0.));
#4170=VECTOR('',#4160,10.);
#4180=LINE('',#4150,#4170);
#4190=CARTESIAN_POINT('',(10.2144127173638,-1.99999999999999,23.5));
#4200=VERTEX_POINT('',#4190);
#4210=EDGE_CURVE('',#4200,#4120,#4180,.T.);
#4220=ORIENTED_EDGE('',*,*,#4210,.T.);
#4230=CARTESIAN_POINT('',(10.2144127173638,-1.99999999999999,23.));
#4240=DIRECTION('',(-4.79414487906318E-16,1.,0.));
#4250=DIRECTION('',(0.608761429008724,2.91849048745336E-16,
0.793353340291233));
#4260=AXIS2_PLACEMENT_3D('',#4230,#4240,#4250);
#4270=CIRCLE('',#4260,0.5);
#4280=CARTESIAN_POINT('',(10.6973756305084,-1.99999999999999,
23.1294095225513));
#4290=VERTEX_POINT('',#4280);
#4300=EDGE_CURVE('',#4200,#4290,#4270,.T.);
#4310=ORIENTED_EDGE('',*,*,#4300,.F.);
#4320=CARTESIAN_POINT('',(13.6495190528383,-1.99999999999999,
12.1118602791856));
#4330=DIRECTION('',(0.258819045102519,1.24081599968226E-16,
-0.965925826289069));
#4340=VECTOR('',#4330,10.);
#4350=LINE('',#4320,#4340);
#4360=CARTESIAN_POINT('',(10.9829629131445,-1.99999999999999,
22.0635832737576));
#4370=VERTEX_POINT('',#4360);
#4380=EDGE_CURVE('',#4290,#4370,#4350,.T.);
#4390=ORIENTED_EDGE('',*,*,#4380,.F.);
#4400=CARTESIAN_POINT('',(10.5,-1.99999999999999,21.9341737512063));
#4410=DIRECTION('',(-4.79414487906318E-16,1.,0.));
#4420=DIRECTION('',(0.991444861373811,4.75313030502876E-16,
0.130526192220049));
#4430=AXIS2_PLACEMENT_3D('',#4400,#4410,#4420);
#4440=CIRCLE('',#4430,0.5);
#4450=CARTESIAN_POINT('',(11.,-1.99999999999999,21.9341737512063));
#4460=VERTEX_POINT('',#4450);
#4470=EDGE_CURVE('',#4370,#4460,#4440,.T.);
#4480=ORIENTED_EDGE('',*,*,#4470,.F.);
#4490=CARTESIAN_POINT('',(11.,-1.99999999999999,0.));
#4500=DIRECTION('',(0.,0.,1.));
#4510=VECTOR('',#4500,10.);
#4520=LINE('',#4490,#4510);
#4530=CARTESIAN_POINT('',(11.,-1.99999999999999,21.8));
#4540=VERTEX_POINT('',#4530);
#4550=EDGE_CURVE('',#4540,#4460,#4520,.T.);
#4560=ORIENTED_EDGE('',*,*,#4550,.T.);
#4570=CARTESIAN_POINT('',(10.5,-1.99999999999999,21.8));
#4580=DIRECTION('',(-4.79414487906318E-16,1.,0.));
#4590=DIRECTION('',(0.707106781186551,3.38997235397635E-16,
-0.707106781186544));
#4600=AXIS2_PLACEMENT_3D('',#4570,#4580,#4590);
#4610=CIRCLE('',#4600,0.5);
#4620=CARTESIAN_POINT('',(10.5,-1.99999999999999,21.3));
#4630=VERTEX_POINT('',#4620);
#4640=EDGE_CURVE('',#4540,#4630,#4610,.T.);
#4650=ORIENTED_EDGE('',*,*,#4640,.F.);
#4660=CARTESIAN_POINT('',(9.5,-2.,21.3));
#4670=DIRECTION('',(1.,4.79414487906318E-16,0.));
#4680=VECTOR('',#4670,10.);
#4690=LINE('',#4660,#4680);
#4700=CARTESIAN_POINT('',(9.,-2.,21.3));
#4710=VERTEX_POINT('',#4700);
#4720=EDGE_CURVE('',#4710,#4630,#4690,.T.);
#4730=ORIENTED_EDGE('',*,*,#4720,.T.);
#4740=CARTESIAN_POINT('',(9.,-2.,20.3));
#4750=DIRECTION('',(4.79414487906318E-16,-1.,0.));
#4760=DIRECTION('',(-0.707106781186545,-3.38997235397632E-16,
0.70710678118655));
#4770=AXIS2_PLACEMENT_3D('',#4740,#4750,#4760);
#4780=CIRCLE('',#4770,1.);
#4790=CARTESIAN_POINT('',(8.,-2.,20.3));
#4800=VERTEX_POINT('',#4790);
#4810=EDGE_CURVE('',#4710,#4800,#4780,.T.);
#4820=ORIENTED_EDGE('',*,*,#4810,.F.);
#4830=CARTESIAN_POINT('',(8.,-2.,-8.67850392488678E-16));
#4840=DIRECTION('',(-2.08492586784067E-16,-9.9954366725347E-32,1.));
#4850=VECTOR('',#4840,10.);
#4860=LINE('',#4830,#4850);
#4870=CARTESIAN_POINT('',(8.,-2.,4.));
#4880=VERTEX_POINT('',#4870);
#4890=EDGE_CURVE('',#4880,#4800,#4860,.T.);
#4900=ORIENTED_EDGE('',*,*,#4890,.T.);
#4910=CARTESIAN_POINT('',(4.,-2.,4.));
#4920=DIRECTION('',(-4.79414487906318E-16,1.,0.));
#4930=DIRECTION('',(0.707106781186548,3.38997235397634E-16,
-0.707106781186548));
#4940=AXIS2_PLACEMENT_3D('',#4910,#4920,#4930);
#4950=CIRCLE('',#4940,4.);
#4960=CARTESIAN_POINT('',(6.12323399573677E-16,-2.,4.));
#4970=VERTEX_POINT('',#4960);
#4980=EDGE_CURVE('',#4880,#4970,#4950,.T.);
#4990=ORIENTED_EDGE('',*,*,#4980,.F.);
#5000=CARTESIAN_POINT('',(6.12323399573677E-16,-2.,0.));
#5010=DIRECTION('',(0.,0.,1.));
#5020=VECTOR('',#5010,10.);
#5030=LINE('',#5000,#5020);
#5040=CARTESIAN_POINT('',(6.12323399573677E-16,-2.,4.05424868893541));
#5050=VERTEX_POINT('',#5040);
#5060=EDGE_CURVE('',#4970,#5050,#5030,.T.);
#5070=ORIENTED_EDGE('',*,*,#5060,.F.);
#5080=CARTESIAN_POINT('',(4.,-2.,4.05424868893541));
#5090=DIRECTION('',(-4.79414487906318E-16,1.,0.));
#5100=DIRECTION('',(-0.750000000000001,-3.59560865929739E-16,
0.661437827766147));
#5110=AXIS2_PLACEMENT_3D('',#5080,#5090,#5100);
#5120=CIRCLE('',#5110,4.);
#5130=CARTESIAN_POINT('',(0.8,-2.,6.45424868893541));
#5140=VERTEX_POINT('',#5130);
#5150=EDGE_CURVE('',#5050,#5140,#5120,.T.);
#5160=ORIENTED_EDGE('',*,*,#5150,.F.);
#5170=CARTESIAN_POINT('',(-8.16122682927127E-16,-2.,7.05424868893541));
#5180=DIRECTION('',(4.79414487906318E-16,-1.,0.));
#5190=DIRECTION('',(0.948683298050514,4.54812517520164E-16,
-0.316227766016837));
#5200=AXIS2_PLACEMENT_3D('',#5170,#5180,#5190);
#5210=CIRCLE('',#5200,1.);
#5220=EDGE_CURVE('',#5140,#710,#5210,.T.);
#5230=ORIENTED_EDGE('',*,*,#5220,.F.);
#5240=ORIENTED_EDGE('',*,*,#720,.T.);
#5250=CARTESIAN_POINT('',(0.999999999999998,-2.,12.5682178936724));
#5260=DIRECTION('',(1.,4.79414487906318E-16,0.));
#5270=VECTOR('',#5260,10.);
#5280=LINE('',#5250,#5270);
#5290=CARTESIAN_POINT('',(1.5,-2.,12.5682178936724));
#5300=VERTEX_POINT('',#5290);
#5310=EDGE_CURVE('',#630,#5300,#5280,.T.);
#5320=ORIENTED_EDGE('',*,*,#5310,.F.);
#5330=CARTESIAN_POINT('',(1.5,-2.,7.));
#5340=DIRECTION('',(-4.05035281641455E-18,-1.94179782132129E-33,-1.));
#5350=VECTOR('',#5340,10.);
#5360=LINE('',#5330,#5350);
#5370=EDGE_CURVE('',#3610,#5300,#5360,.T.);
#5380=ORIENTED_EDGE('',*,*,#5370,.T.);
#5390=ORIENTED_EDGE('',*,*,#3620,.F.);
#5400=EDGE_LOOP('',(#5390,#5380,#5320,#5240,#5230,#5160,#5070,#4990,
#4900,#4820,#4730,#4650,#4560,#4480,#4390,#4310,#4220,#4140,#4050,#3970,
#3880));
#5410=FACE_OUTER_BOUND('',#5400,.T.);
#5420=CARTESIAN_POINT('',(4.,-2.,4.));
#5430=DIRECTION('',(-4.79414487906318E-16,1.,0.));
#5440=DIRECTION('',(1.,4.79414487906318E-16,0.));
#5450=AXIS2_PLACEMENT_3D('',#5420,#5430,#5440);
#5460=CIRCLE('',#5450,1.5);
#5470=CARTESIAN_POINT('',(2.5,-2.,4.));
#5480=VERTEX_POINT('',#5470);
#5490=CARTESIAN_POINT('',(5.5,-2.,4.));
#5500=VERTEX_POINT('',#5490);
#5510=EDGE_CURVE('',#5480,#5500,#5460,.T.);
#5520=ORIENTED_EDGE('',*,*,#5510,.T.);
#5530=EDGE_CURVE('',#5500,#5480,#5460,.T.);
#5540=ORIENTED_EDGE('',*,*,#5530,.T.);
#5550=EDGE_LOOP('',(#5540,#5520));
#5560=FACE_BOUND('',#5550,.T.);
#5570=ADVANCED_FACE('',(#5410,#5560),#3870,.T.);
#5580=CARTESIAN_POINT('',(0.999999999999998,-1.8,12.5682178936724));
#5590=DIRECTION('',(-1.,-4.89858719658941E-16,0.));
#5600=DIRECTION('',(1.61501637232882E-16,-0.329690236697891,
0.944089163069934));
#5610=AXIS2_PLACEMENT_3D('',#5580,#5590,#5600);
#5620=CYLINDRICAL_SURFACE('',#5610,0.2);
#5630=CARTESIAN_POINT('',(0.999999999999998,-1.64347826086956,
12.6927206855269));
#5640=DIRECTION('',(-1.,-4.89858719658941E-16,0.));
#5650=VECTOR('',#5640,10.);
#5660=LINE('',#5630,#5650);
#5670=CARTESIAN_POINT('',(1.5,-1.64347826086956,12.6927206855269));
#5680=VERTEX_POINT('',#5670);
#5690=EDGE_CURVE('',#5680,#540,#5660,.T.);
#5700=ORIENTED_EDGE('',*,*,#5690,.T.);
#5710=CARTESIAN_POINT('',(1.5,-1.8,12.5682178936724));
#5720=DIRECTION('',(1.,4.44089209850063E-16,-4.05035281641455E-18));
#5730=DIRECTION('',(1.50235770911033E-16,-0.329690236697891,
0.944089163069934));
#5740=AXIS2_PLACEMENT_3D('',#5710,#5720,#5730);
#5750=CIRCLE('',#5740,0.2);
#5760=EDGE_CURVE('',#5680,#5300,#5750,.T.);
#5770=ORIENTED_EDGE('',*,*,#5760,.F.);
#5780=ORIENTED_EDGE('',*,*,#5310,.T.);
#5790=ORIENTED_EDGE('',*,*,#640,.T.);
#5800=EDGE_LOOP('',(#5790,#5780,#5770,#5700));
#5810=FACE_OUTER_BOUND('',#5800,.T.);
#5820=ADVANCED_FACE('',(#5810),#5620,.T.);
#5830=CARTESIAN_POINT('',(0.999999999999997,5.55111512312578E-16,14.));
#5840=DIRECTION('',(1.,4.89858719658941E-16,0.));
#5850=DIRECTION('',(-9.71929001543536E-49,1.98410064481496E-33,-1.));
#5860=AXIS2_PLACEMENT_3D('',#5830,#5840,#5850);
#5870=CYLINDRICAL_SURFACE('',#5860,2.1);
#5880=CARTESIAN_POINT('',(1.5,8.00040872142049E-16,14.));
#5890=DIRECTION('',(1.,4.89858719658941E-16,-4.05035281641282E-18));
#5900=DIRECTION('',(-4.05035281641282E-18,-1.09476442525376E-47,-1.));
#5910=AXIS2_PLACEMENT_3D('',#5880,#5890,#5900);
#5920=CIRCLE('',#5910,2.1);
#5930=EDGE_CURVE('',#5680,#220,#5920,.T.);
#5940=ORIENTED_EDGE('',*,*,#5930,.T.);
#5950=ORIENTED_EDGE('',*,*,#5690,.F.);
#5960=ORIENTED_EDGE('',*,*,#550,.F.);
#5970=ORIENTED_EDGE('',*,*,#310,.F.);
#5980=EDGE_LOOP('',(#5970,#5960,#5950,#5940));
#5990=FACE_OUTER_BOUND('',#5980,.T.);
#6000=ADVANCED_FACE('',(#5990),#5870,.F.);
#6010=CARTESIAN_POINT('',(7.4142135623731,0.500000000000003,22.5));
#6020=DIRECTION('',(-4.79414487906318E-16,1.,0.));
#6030=DIRECTION('',(-0.382683432365091,-1.83463981757542E-16,
0.923879532511286));
#6040=AXIS2_PLACEMENT_3D('',#6010,#6020,#6030);
#6050=CYLINDRICAL_SURFACE('',#6040,1.);
#6060=CARTESIAN_POINT('',(7.4142135623731,0.500000000000003,23.5));
#6070=DIRECTION('',(-4.79414487906318E-16,1.,0.));
#6080=VECTOR('',#6070,10.);
#6090=LINE('',#6060,#6080);
#6100=EDGE_CURVE('',#4120,#2060,#6090,.T.);
#6110=ORIENTED_EDGE('',*,*,#6100,.T.);
#6120=ORIENTED_EDGE('',*,*,#4130,.T.);
#6130=CARTESIAN_POINT('',(6.70710678118655,0.500000000000003,
23.2071067811865));
#6140=DIRECTION('',(4.79414487906318E-16,-1.,0.));
#6150=VECTOR('',#6140,10.);
#6160=LINE('',#6130,#6150);
#6170=EDGE_CURVE('',#2150,#4030,#6160,.T.);
#6180=ORIENTED_EDGE('',*,*,#6170,.T.);
#6190=ORIENTED_EDGE('',*,*,#2160,.T.);
#6200=EDGE_LOOP('',(#6190,#6180,#6120,#6110));
#6210=FACE_OUTER_BOUND('',#6200,.T.);
#6220=ADVANCED_FACE('',(#6210),#6050,.T.);
#6230=CARTESIAN_POINT('',(4.,1.,20.5));
#6240=DIRECTION('',(-0.707106781186548,-3.38997235397633E-16,
0.707106781186548));
#6250=DIRECTION('',(0.707106781186548,0.,0.707106781186548));
#6260=AXIS2_PLACEMENT_3D('',#6230,#6240,#6250);
#6270=PLANE('',#6260);
#6280=ORIENTED_EDGE('',*,*,#4040,.T.);
#6290=CARTESIAN_POINT('',(1.29289321881345,1.5,17.7928932188135));
#6300=DIRECTION('',(-4.79414487906318E-16,1.,0.));
#6310=VECTOR('',#6300,10.);
#6320=LINE('',#6290,#6310);
#6330=EDGE_CURVE('',#3950,#2230,#6320,.T.);
#6340=ORIENTED_EDGE('',*,*,#6330,.F.);
#6350=ORIENTED_EDGE('',*,*,#2240,.T.);
#6360=ORIENTED_EDGE('',*,*,#6170,.F.);
#6370=EDGE_LOOP('',(#6360,#6350,#6340,#6280));
#6380=FACE_OUTER_BOUND('',#6370,.T.);
#6390=ADVANCED_FACE('',(#6380),#6270,.T.);
#6400=CARTESIAN_POINT('',(2.,1.5,17.0857864376269));
#6410=DIRECTION('',(4.79414487906318E-16,-1.,0.));
#6420=DIRECTION('',(-0.923879532511287,-4.42921232966027E-16,
0.382683432365089));
#6430=AXIS2_PLACEMENT_3D('',#6400,#6410,#6420);
#6440=CYLINDRICAL_SURFACE('',#6430,1.);
#6450=ORIENTED_EDGE('',*,*,#3210,.T.);
#6460=ORIENTED_EDGE('',*,*,#2330,.T.);
#6470=ORIENTED_EDGE('',*,*,#6330,.T.);
#6480=ORIENTED_EDGE('',*,*,#3960,.T.);
#6490=EDGE_LOOP('',(#6480,#6470,#6460,#6450));
#6500=FACE_OUTER_BOUND('',#6490,.T.);
#6510=ADVANCED_FACE('',(#6500),#6440,.T.);
#6520=CARTESIAN_POINT('',(-2.77555756156289E-15,2.,7.05424868893541));
#6530=DIRECTION('',(4.89858719658941E-16,-1.,0.));
#6540=DIRECTION('',(0.948683298050514,4.64720785744846E-16,
-0.316227766016837));
#6550=AXIS2_PLACEMENT_3D('',#6520,#6530,#6540);
#6560=CYLINDRICAL_SURFACE('',#6550,1.);
#6570=ORIENTED_EDGE('',*,*,#800,.T.);
#6580=ORIENTED_EDGE('',*,*,#5220,.T.);
#6590=CARTESIAN_POINT('',(0.799999999999997,2.,6.45424868893541));
#6600=DIRECTION('',(4.89858719658941E-16,-1.,0.));
#6610=VECTOR('',#6600,10.);
#6620=LINE('',#6590,#6610);
#6630=EDGE_CURVE('',#1040,#5140,#6620,.T.);
#6640=ORIENTED_EDGE('',*,*,#6630,.T.);
#6650=ORIENTED_EDGE('',*,*,#1050,.T.);
#6660=EDGE_LOOP('',(#6650,#6640,#6580,#6570));
#6670=FACE_OUTER_BOUND('',#6660,.T.);
#6680=ADVANCED_FACE('',(#6670),#6560,.F.);
#6690=CARTESIAN_POINT('',(4.,2.,4.05424868893541));
#6700=DIRECTION('',(4.89858719658941E-16,-1.,0.));
#6710=DIRECTION('',(-0.750000000000001,-3.67394039744206E-16,
0.661437827766147));
#6720=AXIS2_PLACEMENT_3D('',#6690,#6700,#6710);
#6730=CYLINDRICAL_SURFACE('',#6720,4.);
#6740=ORIENTED_EDGE('',*,*,#5150,.T.);
#6750=CARTESIAN_POINT('',(-1.66533453693773E-15,2.,4.05424868893541));
#6760=DIRECTION('',(4.89858719658941E-16,-1.,0.));
#6770=VECTOR('',#6760,4.);
#6780=LINE('',#6750,#6770);
#6790=EDGE_CURVE('',#1130,#5050,#6780,.T.);
#6800=ORIENTED_EDGE('',*,*,#6790,.T.);
#6810=ORIENTED_EDGE('',*,*,#1140,.T.);
#6820=ORIENTED_EDGE('',*,*,#6630,.F.);
#6830=EDGE_LOOP('',(#6820,#6810,#6800,#6740));
#6840=FACE_OUTER_BOUND('',#6830,.T.);
#6850=ADVANCED_FACE('',(#6840),#6730,.T.);
#6860=CARTESIAN_POINT('',(6.12323399573677E-16,-2.,0.));
#6870=DIRECTION('',(-1.,-4.89858719658941E-16,0.));
#6880=DIRECTION('',(0.,0.,1.));
#6890=AXIS2_PLACEMENT_3D('',#6860,#6870,#6880);
#6900=PLANE('',#6890);
#6910=ORIENTED_EDGE('',*,*,#5060,.T.);
#6920=CARTESIAN_POINT('',(0.,-1.,4.));
#6930=DIRECTION('',(-4.89858719658941E-16,1.,0.));
#6940=VECTOR('',#6930,10.);
#6950=LINE('',#6920,#6940);
#6960=EDGE_CURVE('',#4970,#1210,#6950,.T.);
#6970=ORIENTED_EDGE('',*,*,#6960,.F.);
#6980=ORIENTED_EDGE('',*,*,#1220,.F.);
#6990=ORIENTED_EDGE('',*,*,#6790,.F.);
#7000=EDGE_LOOP('',(#6990,#6980,#6970,#6910));
#7010=FACE_OUTER_BOUND('',#7000,.T.);
#7020=ADVANCED_FACE('',(#7010),#6900,.T.);
#7030=CARTESIAN_POINT('',(4.,-0.999999999999998,4.));
#7040=DIRECTION('',(5.55111512312578E-16,-1.,0.));
#7050=DIRECTION('',(0.707106781186548,3.92523114670944E-16,
-0.707106781186548));
#7060=AXIS2_PLACEMENT_3D('',#7030,#7040,#7050);
#7070=CYLINDRICAL_SURFACE('',#7060,4.);
#7080=CARTESIAN_POINT('',(8.,-0.999999999999996,4.));
#7090=DIRECTION('',(5.55111512312578E-16,-1.,0.));
#7100=VECTOR('',#7090,10.);
#7110=LINE('',#7080,#7100);
#7120=EDGE_CURVE('',#1300,#4880,#7110,.T.);
#7130=ORIENTED_EDGE('',*,*,#7120,.T.);
#7140=ORIENTED_EDGE('',*,*,#1310,.T.);
#7150=ORIENTED_EDGE('',*,*,#6960,.T.);
#7160=ORIENTED_EDGE('',*,*,#4980,.T.);
#7170=EDGE_LOOP('',(#7160,#7150,#7140,#7130));
#7180=FACE_OUTER_BOUND('',#7170,.T.);
#7190=ADVANCED_FACE('',(#7180),#7070,.T.);
#7200=CARTESIAN_POINT('',(8.,-2.,-1.11022302462516E-15));
#7210=DIRECTION('',(-1.,-5.55111512312578E-16,-2.08492586784067E-16));
#7220=DIRECTION('',(-2.08492586784067E-16,-9.9954366725347E-32,1.));
#7230=AXIS2_PLACEMENT_3D('',#7200,#7210,#7220);
#7240=PLANE('',#7230);
#7250=ORIENTED_EDGE('',*,*,#4890,.F.);
#7260=CARTESIAN_POINT('',(8.,-2.,20.3));
#7270=DIRECTION('',(-5.55111512312578E-16,1.,0.));
#7280=VECTOR('',#7270,10.);
#7290=LINE('',#7260,#7280);
#7300=EDGE_CURVE('',#4800,#1380,#7290,.T.);
#7310=ORIENTED_EDGE('',*,*,#7300,.F.);
#7320=ORIENTED_EDGE('',*,*,#1390,.F.);
#7330=ORIENTED_EDGE('',*,*,#7120,.F.);
#7340=EDGE_LOOP('',(#7330,#7320,#7310,#7250));
#7350=FACE_OUTER_BOUND('',#7340,.T.);
#7360=ADVANCED_FACE('',(#7350),#7240,.F.);
#7370=CARTESIAN_POINT('',(9.,-2.,20.3));
#7380=DIRECTION('',(-5.55111512312578E-16,1.,0.));
#7390=DIRECTION('',(-0.707106781186545,-3.92523114670942E-16,
0.70710678118655));
#7400=AXIS2_PLACEMENT_3D('',#7370,#7380,#7390);
#7410=CYLINDRICAL_SURFACE('',#7400,1.);
#7420=CARTESIAN_POINT('',(9.,-2.,21.3));
#7430=DIRECTION('',(5.55111512312578E-16,-1.,0.));
#7440=VECTOR('',#7430,10.);
#7450=LINE('',#7420,#7440);
#7460=EDGE_CURVE('',#1470,#4710,#7450,.T.);
#7470=ORIENTED_EDGE('',*,*,#7460,.T.);
#7480=ORIENTED_EDGE('',*,*,#1480,.T.);
#7490=ORIENTED_EDGE('',*,*,#7300,.T.);
#7500=ORIENTED_EDGE('',*,*,#4810,.T.);
#7510=EDGE_LOOP('',(#7500,#7490,#7480,#7470));
#7520=FACE_OUTER_BOUND('',#7510,.T.);
#7530=ADVANCED_FACE('',(#7520),#7410,.F.);
#7540=CARTESIAN_POINT('',(10.5,5.13478148889135E-15,21.8));
#7550=DIRECTION('',(-5.55111512312578E-16,1.,0.));
#7560=DIRECTION('',(0.707106781186551,3.92523114670946E-16,
-0.707106781186544));
#7570=AXIS2_PLACEMENT_3D('',#7540,#7550,#7560);
#7580=CYLINDRICAL_SURFACE('',#7570,0.5);
#7590=CARTESIAN_POINT('',(10.5,5.13478148889135E-15,21.3));
#7600=DIRECTION('',(-5.55111512312578E-16,1.,0.));
#7610=VECTOR('',#7600,10.);
#7620=LINE('',#7590,#7610);
#7630=EDGE_CURVE('',#4630,#1550,#7620,.T.);
#7640=ORIENTED_EDGE('',*,*,#7630,.T.);
#7650=ORIENTED_EDGE('',*,*,#4640,.T.);
#7660=CARTESIAN_POINT('',(11.,5.41233724504764E-15,21.8));
#7670=DIRECTION('',(5.55111512312578E-16,-1.,0.));
#7680=VECTOR('',#7670,10.);
#7690=LINE('',#7660,#7680);
#7700=EDGE_CURVE('',#1640,#4540,#7690,.T.);
#7710=ORIENTED_EDGE('',*,*,#7700,.T.);
#7720=ORIENTED_EDGE('',*,*,#1650,.T.);
#7730=EDGE_LOOP('',(#7720,#7710,#7650,#7640));
#7740=FACE_OUTER_BOUND('',#7730,.T.);
#7750=ADVANCED_FACE('',(#7740),#7580,.T.);
#7760=CARTESIAN_POINT('',(8.,-2.,21.3));
#7770=DIRECTION('',(0.,-0.,1.));
#7780=DIRECTION('',(1.,4.79414487906318E-16,0.));
#7790=AXIS2_PLACEMENT_3D('',#7760,#7770,#7780);
#7800=PLANE('',#7790);
#7810=ORIENTED_EDGE('',*,*,#4720,.F.);
#7820=ORIENTED_EDGE('',*,*,#7630,.F.);
#7830=ORIENTED_EDGE('',*,*,#1560,.F.);
#7840=ORIENTED_EDGE('',*,*,#7460,.F.);
#7850=EDGE_LOOP('',(#7840,#7830,#7820,#7810));
#7860=FACE_OUTER_BOUND('',#7850,.T.);
#7870=ADVANCED_FACE('',(#7860),#7800,.F.);
#7880=CARTESIAN_POINT('',(10.2144127173638,0.500000000000005,23.));
#7890=DIRECTION('',(5.55111512312578E-16,-1.,0.));
#7900=DIRECTION('',(0.608761429008724,3.37930477494599E-16,
0.793353340291233));
#7910=AXIS2_PLACEMENT_3D('',#7880,#7890,#7900);
#7920=CYLINDRICAL_SURFACE('',#7910,0.5);
#7930=CARTESIAN_POINT('',(10.2144127173638,0.500000000000005,23.5));
#7940=DIRECTION('',(5.55111512312578E-16,-1.,0.));
#7950=VECTOR('',#7940,10.);
#7960=LINE('',#7930,#7950);
#7970=EDGE_CURVE('',#1980,#4200,#7960,.T.);
#7980=ORIENTED_EDGE('',*,*,#7970,.T.);
#7990=ORIENTED_EDGE('',*,*,#1990,.T.);
#8000=CARTESIAN_POINT('',(10.6973756305084,0.500000000000005,
23.1294095225513));
#8010=DIRECTION('',(-5.55111512312578E-16,1.,0.));
#8020=VECTOR('',#8010,10.);
#8030=LINE('',#8000,#8020);
#8040=EDGE_CURVE('',#4290,#1890,#8030,.T.);
#8050=ORIENTED_EDGE('',*,*,#8040,.T.);
#8060=ORIENTED_EDGE('',*,*,#4300,.T.);
#8070=EDGE_LOOP('',(#8060,#8050,#7990,#7980));
#8080=FACE_OUTER_BOUND('',#8070,.T.);
#8090=ADVANCED_FACE('',(#8080),#7920,.T.);
#8100=CARTESIAN_POINT('',(10.7990381056767,1.00000000000001,22.75));
#8110=DIRECTION('',(0.965925826289069,5.36196546213102E-16,
0.258819045102519));
#8120=DIRECTION('',(0.258819045102519,0.,-0.965925826289069));
#8130=AXIS2_PLACEMENT_3D('',#8100,#8110,#8120);
#8140=PLANE('',#8130);
#8150=ORIENTED_EDGE('',*,*,#1900,.T.);
#8160=CARTESIAN_POINT('',(10.9829629131445,1.5,22.0635832737576));
#8170=DIRECTION('',(5.55111512312578E-16,-1.,0.));
#8180=VECTOR('',#8170,10.);
#8190=LINE('',#8160,#8180);
#8200=EDGE_CURVE('',#1810,#4370,#8190,.T.);
#8210=ORIENTED_EDGE('',*,*,#8200,.F.);
#8220=ORIENTED_EDGE('',*,*,#4380,.T.);
#8230=ORIENTED_EDGE('',*,*,#8040,.F.);
#8240=EDGE_LOOP('',(#8230,#8220,#8210,#8150));
#8250=FACE_OUTER_BOUND('',#8240,.T.);
#8260=ADVANCED_FACE('',(#8250),#8140,.T.);
#8270=CARTESIAN_POINT('',(10.5,1.5,21.9341737512063));
#8280=DIRECTION('',(-5.55111512312578E-16,1.,0.));
#8290=DIRECTION('',(0.991444861373811,5.5036245637175E-16,
0.130526192220049));
#8300=AXIS2_PLACEMENT_3D('',#8270,#8280,#8290);
#8310=CYLINDRICAL_SURFACE('',#8300,0.5);
#8320=CARTESIAN_POINT('',(11.,1.5,21.9341737512063));
#8330=DIRECTION('',(-5.55111512312578E-16,1.,0.));
#8340=VECTOR('',#8330,10.);
#8350=LINE('',#8320,#8340);
#8360=EDGE_CURVE('',#4460,#1720,#8350,.T.);
#8370=ORIENTED_EDGE('',*,*,#8360,.T.);
#8380=ORIENTED_EDGE('',*,*,#4470,.T.);
#8390=ORIENTED_EDGE('',*,*,#8200,.T.);
#8400=ORIENTED_EDGE('',*,*,#1820,.T.);
#8410=EDGE_LOOP('',(#8400,#8390,#8380,#8370));
#8420=FACE_OUTER_BOUND('',#8410,.T.);
#8430=ADVANCED_FACE('',(#8420),#8310,.T.);
#8440=CARTESIAN_POINT('',(5.5,2.66958172739413E-15,23.5));
#8450=DIRECTION('',(0.,0.,1.));
#8460=DIRECTION('',(1.,0.,0.));
#8470=AXIS2_PLACEMENT_3D('',#8440,#8450,#8460);
#8480=PLANE('',#8470);
#8490=ORIENTED_EDGE('',*,*,#2070,.F.);
#8500=ORIENTED_EDGE('',*,*,#7970,.F.);
#8510=ORIENTED_EDGE('',*,*,#4210,.F.);
#8520=ORIENTED_EDGE('',*,*,#6100,.F.);
#8530=EDGE_LOOP('',(#8520,#8510,#8500,#8490));
#8540=FACE_OUTER_BOUND('',#8530,.T.);
#8550=ADVANCED_FACE('',(#8540),#8480,.T.);
#8560=CARTESIAN_POINT('',(1.5,8.33083224065417E-16,14.));
#8570=DIRECTION('',(-1.,-4.44089209850063E-16,4.05035281641455E-18));
#8580=DIRECTION('',(4.05035281641455E-18,0.,1.));
#8590=AXIS2_PLACEMENT_3D('',#8560,#8570,#8580);
#8600=PLANE('',#8590);
#8610=ORIENTED_EDGE('',*,*,#5760,.T.);
#8620=ORIENTED_EDGE('',*,*,#5930,.F.);
#8630=ORIENTED_EDGE('',*,*,#230,.T.);
#8640=ORIENTED_EDGE('',*,*,#2550,.F.);
#8650=ORIENTED_EDGE('',*,*,#2960,.T.);
#8660=CARTESIAN_POINT('',(1.5,8.00040872142049E-16,14.));
#8670=DIRECTION('',(1.,4.89858719658941E-16,-4.05035281641282E-18));
#8680=DIRECTION('',(-4.05035281641282E-18,-1.09476442525376E-47,-1.));
#8690=AXIS2_PLACEMENT_3D('',#8660,#8670,#8680);
#8700=CIRCLE('',#8690,2.1);
#8710=EDGE_CURVE('',#2860,#3700,#8700,.T.);
#8720=ORIENTED_EDGE('',*,*,#8710,.F.);
#8730=ORIENTED_EDGE('',*,*,#3710,.T.);
#8740=ORIENTED_EDGE('',*,*,#5370,.F.);
#8750=EDGE_LOOP('',(#8740,#8730,#8720,#8650,#8640,#8630,#8620,#8610));
#8760=FACE_OUTER_BOUND('',#8750,.T.);
#8770=ADVANCED_FACE('',(#8760),#8600,.T.);
#8780=CARTESIAN_POINT('',(0.999999999999997,5.55111512312578E-16,14.));
#8790=DIRECTION('',(1.,4.89858719658941E-16,0.));
#8800=DIRECTION('',(-5.99903913064741E-32,1.22464679914735E-16,1.));
#8810=AXIS2_PLACEMENT_3D('',#8780,#8790,#8800);
#8820=CYLINDRICAL_SURFACE('',#8810,2.1);
#8830=ORIENTED_EDGE('',*,*,#3450,.F.);
#8840=ORIENTED_EDGE('',*,*,#3770,.F.);
#8850=ORIENTED_EDGE('',*,*,#8710,.T.);
#8860=ORIENTED_EDGE('',*,*,#2890,.F.);
#8870=EDGE_LOOP('',(#8860,#8850,#8840,#8830));
#8880=FACE_OUTER_BOUND('',#8870,.T.);
#8890=ADVANCED_FACE('',(#8880),#8820,.F.);
#8900=CARTESIAN_POINT('',(3.99999999999999,24.2535711856502,4.));
#8910=DIRECTION('',(4.79414487906318E-16,-1.,0.));
#8920=DIRECTION('',(1.,4.79414487906318E-16,0.));
#8930=AXIS2_PLACEMENT_3D('',#8900,#8910,#8920);
#8940=CYLINDRICAL_SURFACE('',#8930,1.5);
#8950=CARTESIAN_POINT('',(2.49999999999999,24.2535711856502,4.));
#8960=DIRECTION('',(4.79414487906318E-16,-1.,0.));
#8970=VECTOR('',#8960,1.);
#8980=LINE('',#8950,#8970);
#8990=EDGE_CURVE('',#2660,#5480,#8980,.T.);
#9000=ORIENTED_EDGE('',*,*,#8990,.T.);
#9010=ORIENTED_EDGE('',*,*,#2690,.F.);
#9020=CARTESIAN_POINT('',(5.49999999999999,24.2535711856502,4.));
#9030=DIRECTION('',(4.79414487906318E-16,-1.,0.));
#9040=VECTOR('',#9030,1.);
#9050=LINE('',#9020,#9040);
#9060=EDGE_CURVE('',#2680,#5500,#9050,.T.);
#9070=ORIENTED_EDGE('',*,*,#9060,.F.);
#9080=ORIENTED_EDGE('',*,*,#5530,.F.);
#9090=EDGE_LOOP('',(#9080,#9070,#9010,#9000));
#9100=FACE_OUTER_BOUND('',#9090,.T.);
#9110=ADVANCED_FACE('',(#9100),#8940,.F.);
#9120=COLOUR_RGB('',0.,0.,1.);
#9130=FILL_AREA_STYLE_COLOUR('',#9120);
#9140=FILL_AREA_STYLE('',(#9130));
#9150=SURFACE_STYLE_FILL_AREA(#9140);
#9160=SURFACE_SIDE_STYLE('',(#9150));
#9170=SURFACE_STYLE_USAGE(.BOTH.,#9160);
#9180=PRESENTATION_STYLE_ASSIGNMENT((#9170));
#9190=CARTESIAN_POINT('',(11.,2.,0.));
#9200=DIRECTION('',(1.,5.55111512312578E-16,0.));
#9210=DIRECTION('',(0.,0.,-1.));
#9220=AXIS2_PLACEMENT_3D('',#9190,#9200,#9210);
#9230=PLANE('',#9220);
#9240=ORIENTED_EDGE('',*,*,#4550,.F.);
#9250=ORIENTED_EDGE('',*,*,#8360,.F.);
#9260=ORIENTED_EDGE('',*,*,#1730,.T.);
#9270=ORIENTED_EDGE('',*,*,#7700,.F.);
#9280=EDGE_LOOP('',(#9270,#9260,#9250,#9240));
#9290=FACE_OUTER_BOUND('',#9280,.T.);
#9300=ADVANCED_FACE('',(#9290),#9230,.T.);
#9310=CARTESIAN_POINT('',(3.99999999999999,24.2535711856502,4.));
#9320=DIRECTION('',(4.79414487906318E-16,-1.,0.));
#9330=DIRECTION('',(1.,4.79414487906318E-16,0.));
#9340=AXIS2_PLACEMENT_3D('',#9310,#9320,#9330);
#9350=CYLINDRICAL_SURFACE('',#9340,1.5);
#9360=ORIENTED_EDGE('',*,*,#8990,.F.);
#9370=ORIENTED_EDGE('',*,*,#5510,.F.);
#9380=ORIENTED_EDGE('',*,*,#9060,.T.);
#9390=ORIENTED_EDGE('',*,*,#2710,.F.);
#9400=EDGE_LOOP('',(#9390,#9380,#9370,#9360));
#9410=FACE_OUTER_BOUND('',#9400,.T.);
#9420=ADVANCED_FACE('',(#9410),#9350,.F.);
#9430=COLOUR_RGB('',0.,0.,1.);
#9440=FILL_AREA_STYLE_COLOUR('',#9430);
#9450=FILL_AREA_STYLE('',(#9440));
#9460=SURFACE_STYLE_FILL_AREA(#9450);
#9470=SURFACE_SIDE_STYLE('',(#9460));
#9480=SURFACE_STYLE_USAGE(.BOTH.,#9470);
#9490=PRESENTATION_STYLE_ASSIGNMENT((#9480));
#9500=CLOSED_SHELL('',(#420,#910,#2750,#3080,#3500,#3820,#5570,#5820,
#6000,#6220,#6390,#6510,#6680,#6850,#7020,#7190,#7360,#7530,#7750,#7870,
#8090,#8260,#8430,#8550,#8770,#8890,#9110,#9300,#9420));
#9510=MANIFOLD_SOLID_BREP('',#9500);
#9520=CARTESIAN_POINT('',(0.,0.,0.));
#9530=DIRECTION('',(0.,0.,1.));
#9540=DIRECTION('',(1.,0.,0.));
#9550=AXIS2_PLACEMENT_3D('',#9520,#9530,#9540);
#9560=APPLICATION_CONTEXT(' ');
#9570=APPLICATION_PROTOCOL_DEFINITION(' ','automotive_design',1998,#9560
);
#9580=PRODUCT_CONTEXT('',#9560,'mechanical');
#9590=PRODUCT_DEFINITION_CONTEXT('part definition',#9560,'design');
#9600=PRODUCT('101427274_00','101427274_00','',(#9580));
#9610=PRODUCT_RELATED_PRODUCT_CATEGORY('part',' ',(#9600));
#9620=PRODUCT_DEFINITION_FORMATION_WITH_SPECIFIED_SOURCE('','',#9600,
.BOUGHT.);
#9630=PRODUCT_DEFINITION('',' ',#9620,#9590);
#9640=PRODUCT_DEFINITION_SHAPE('','',#9630);
#9650=DIMENSIONAL_EXPONENTS(1.,0.,0.,0.,0.,0.,0.);
#9660=DIMENSIONAL_EXPONENTS(0.,0.,0.,0.,0.,0.,0.);
#9670=DIMENSIONAL_EXPONENTS(0.,0.,0.,0.,0.,0.,0.);
#9680=(LENGTH_UNIT() NAMED_UNIT(*) SI_UNIT(.MILLI.,.METRE.));
#9690=(NAMED_UNIT(*) PLANE_ANGLE_UNIT() SI_UNIT($,.RADIAN.));
#9700=(NAMED_UNIT(*) SI_UNIT($,.STERADIAN.) SOLID_ANGLE_UNIT());
#9710=(GEOMETRIC_REPRESENTATION_CONTEXT(3) 
GLOBAL_UNCERTAINTY_ASSIGNED_CONTEXT((#9720)) 
GLOBAL_UNIT_ASSIGNED_CONTEXT((#9680,#9690,#9700)) REPRESENTATION_CONTEXT
('',''));
#9720=UNCERTAINTY_MEASURE_WITH_UNIT(LENGTH_MEASURE(1.E-6),#9680,
'distance_accuracy_value','maximum gap value');
#9730=ADVANCED_BREP_SHAPE_REPRESENTATION('',(#9550,#9510),#9710);
#9740=SHAPE_DEFINITION_REPRESENTATION(#9640,#9730);
#9750=COLOUR_RGB('',0.309803932905197,0.658823549747467,
0.200000017881393);
#9760=FILL_AREA_STYLE_COLOUR('',#9750);
#9770=FILL_AREA_STYLE('',(#9760));
#9780=SURFACE_STYLE_FILL_AREA(#9770);
#9790=SURFACE_SIDE_STYLE('',(#9780));
#9800=SURFACE_STYLE_USAGE(.BOTH.,#9790);
#9810=PRESENTATION_STYLE_ASSIGNMENT((#9800));
#9820=STYLED_ITEM('',(#9810),#9510);
#9830=OVER_RIDING_STYLED_ITEM('',(#9180),#9110,#9820);
#9840=OVER_RIDING_STYLED_ITEM('',(#9490),#9420,#9820);
#9850=DRAUGHTING_MODEL('',(#9820,#9830,#9840),#9710);
ENDSEC;
END-ISO-10303-21;
